HIERARCHY
ROOT Hips
{
	OFFSET 0.000000 0.000000 0.000000
	CHANNELS 6 Xposition Yposition Zposition Zrotation Yrotation Xrotation 
	JOINT LHipJoint
	{
		OFFSET 0.000000 0.000000 0.000000
		CHANNELS 3 Zrotation Yrotation Xrotation
		JOINT LeftUpLeg
		{
			OFFSET 1.363060 -1.794630 0.839290
			CHANNELS 3 Zrotation Yrotation Xrotation
			JOINT LeftLeg
			{
				OFFSET 2.448110 -6.726130 0.000000
				CHANNELS 3 Zrotation Yrotation Xrotation
				JOINT LeftFoot
				{
					OFFSET 2.562200 -7.039590 0.000000
					CHANNELS 3 Zrotation Yrotation Xrotation
					JOINT LeftToeBase
					{
						OFFSET 0.157640 -0.433110 2.322550
						CHANNELS 3 Zrotation Yrotation Xrotation
						End Site
						{
							OFFSET 0.000000 0.000000 0.000000
						}
					}
				}
			}
		}
	}
	JOINT RHipJoint
	{
		OFFSET 0.000000 0.000000 0.000000
		CHANNELS 3 Zrotation Yrotation Xrotation
		JOINT RightUpLeg
		{
			OFFSET -1.305520 -1.794630 0.839290
			CHANNELS 3 Zrotation Yrotation Xrotation
			JOINT RightLeg
			{
				OFFSET -2.542530 -6.985550 0.000000
				CHANNELS 3 Zrotation Yrotation Xrotation
				JOINT RightFoot
				{
					OFFSET -2.568260 -7.056230 0.000000
					CHANNELS 3 Zrotation Yrotation Xrotation
					JOINT RightToeBase
					{
						OFFSET -0.164730 -0.452590 2.363150
						CHANNELS 3 Zrotation Yrotation Xrotation
						End Site
						{
							OFFSET 0.000000 0.000000 0.000000
						}
					}
				}
			}
		}
	}
}
MOTION
Frames: 14
Frame Time: 0.008333
1.663200 15.848553 2.627113 -101.719543 -74.738921 156.352819 -8.166337 -5.776779 -2.917524 -1.578753 0.362063 -85.403772 -0.791471 3.732004 52.188743 4.557873 15.204205 -21.816189 -2.726600 0.000000 -27.524200 7.079148 0.141488 11.808908 -9.127502 15.004402 -122.914465 7.874923 5.421939 -12.018968 1.367770 3.434107 5.228949 -0.501800 0.000000 -74.512100
1.669282 15.803735 2.629105 -102.087950 -74.450732 156.938498 -8.138620 -5.849027 -2.893612 -1.143239 0.374131 -86.047187 -0.678134 3.805212 53.083784 4.659285 15.604620 -22.160498 -2.880900 -0.000000 -27.348600 7.103985 0.098470 11.688320 -8.764447 15.474296 -122.975841 8.105037 5.017034 -10.679452 1.722627 4.468790 6.731912 -0.116400 -0.000000 -76.129200
1.673932 15.763704 2.630923 -102.250533 -74.213477 157.256128 -8.126293 -5.920412 -2.853025 -0.723612 0.366681 -86.581425 -0.570940 3.861652 53.879992 4.747600 15.957329 -22.469904 -3.022700 -0.000000 -27.158500 7.123078 0.051375 11.523236 -8.204723 15.971437 -122.815238 8.329580 4.560846 -9.267670 2.100149 5.592063 8.540403 0.373700 0.000000 -77.313800
1.676753 15.728829 2.632363 -102.191442 -74.047599 157.299400 -8.128171 -5.987125 -2.794098 -0.335756 0.318639 -87.013157 -0.472359 3.899904 54.564112 4.821380 16.252512 -22.738536 -3.147100 -0.000000 -26.961500 7.132358 0.005072 11.319573 -7.488364 16.436226 -122.389294 8.517740 4.100592 -7.930344 2.460555 6.723861 10.479817 0.948800 -0.000000 -77.921800
1.677517 15.699440 2.632911 -101.911783 -73.967008 157.085101 -8.141790 -6.044462 -2.716734 0.004276 0.215845 -87.357835 -0.385267 3.919878 55.123540 4.879497 16.481169 -22.959278 -3.248800 0.000000 -26.771600 7.129964 -0.037172 11.091953 -6.679679 16.814050 -121.686092 8.646715 3.681037 -6.782844 2.764872 7.755100 12.364166 1.551100 0.000000 -77.987900
1.675850 15.675578 2.631982 -101.421169 -73.980349 156.642565 -8.164352 -6.086691 -2.621063 0.281047 0.048769 -87.634660 -0.312435 3.922199 55.548096 4.921283 16.635832 -23.125962 -3.322800 -0.000000 -26.602900 7.117846 -0.076037 10.856733 -5.830761 17.075904 -120.734570 8.713617 3.328468 -5.862097 2.989807 8.593138 14.015555 2.104300 0.000000 -77.677900
1.671708 15.657245 2.628748 -100.748429 -74.093702 156.015680 -8.191858 -6.106064 -2.507927 0.474797 -0.190334 -87.863164 -0.256748 3.908238 55.830727 4.946594 16.711187 -23.234521 -3.365700 -0.000000 -26.470000 7.102726 -0.113462 10.629545 -4.985204 17.211883 -119.600573 8.726659 3.046038 -5.127453 3.127375 9.166662 15.288543 2.530101 0.000000 -77.219200
1.665197 15.644559 2.623269 -99.885884 -74.296672 155.207566 -8.225002 -6.105684 -2.379623 0.590796 -0.488650 -88.052982 -0.219066 3.879922 55.968831 4.954441 16.702795 -23.281173 -3.374700 0.000001 -26.382800 7.084727 -0.152197 10.418811 -4.177993 17.224150 -118.314008 8.689018 2.836064 -4.566751 3.172716 9.394674 16.133240 2.754900 -0.000001 -76.812700
1.656226 15.637115 2.614482 -98.884782 -74.591797 154.277996 -8.258809 -6.075405 -2.237665 0.605982 -0.849779 -88.216751 -0.202099 3.839637 55.962811 4.945629 16.610923 -23.266802 -3.349900 -0.000000 -26.350699 7.076118 -0.195228 10.233678 -3.427798 17.130624 -116.974862 8.615832 2.668032 -4.036837 3.136357 9.274976 16.492896 2.751300 0.000000 -76.592700
1.644987 15.634725 2.602358 -97.756576 -74.965880 153.238831 -8.293031 -6.016665 -2.085327 0.523751 -1.259661 -88.353230 -0.206077 3.789576 55.817556 4.920304 16.438254 -23.193246 -3.292900 0.000000 -26.376700 7.079329 -0.245523 10.074540 -2.743560 16.952780 -115.627767 8.512030 2.522093 -3.457539 3.023386 8.805676 16.394095 2.517700 -0.000000 -76.590300
1.631875 15.637128 2.586706 -96.530261 -75.408391 152.112222 -8.325919 -5.928436 -1.925669 0.343823 -1.708585 -88.458421 -0.230891 3.731817 55.542107 4.879622 16.192164 -23.065401 -3.207600 0.000001 -26.455500 7.098001 -0.305595 9.937941 -2.119787 16.716325 -114.326337 8.384718 2.370176 -2.717304 2.842754 8.034430 15.877165 2.091900 0.000000 -76.716300
1.617199 15.644113 2.568084 -95.202095 -75.896117 150.884445 -8.359559 -5.818426 -1.763301 0.085988 -2.172551 -88.516826 -0.274540 3.668278 55.149357 4.823986 15.880924 -22.888491 -3.098500 -0.000000 -26.590800 7.126653 -0.376330 9.814208 -1.545644 16.446062 -113.067195 8.232663 2.200589 -1.784633 2.596588 6.997407 15.043526 1.521000 -0.000001 -76.960300
1.601184 15.655113 2.546275 -93.815914 -76.422354 149.589896 -8.391064 -5.683147 -1.598614 -0.250005 -2.651056 -88.521260 -0.335429 3.599548 54.652702 4.757030 15.521956 -22.671932 -2.972600 -0.000000 -26.759400 7.168995 -0.458475 9.694042 -0.997102 16.163492 -111.903127 8.065410 1.980494 -0.535708 2.301404 5.808100 13.950427 0.885300 0.000001 -77.032400
1.584372 15.669978 2.522095 -92.366377 -76.962242 148.206469 -8.423097 -5.532950 -1.435048 -0.635688 -3.119596 -88.453920 -0.409603 3.526866 54.069838 4.680339 15.129460 -22.422048 -2.835700 -0.000001 -26.964900 7.215406 -0.549284 9.561836 -0.455988 15.884757 -110.800506 7.878734 1.706020 1.015817 1.963648 4.519335 12.727940 0.236300 -0.000000 -76.982800
